<?xml version="1.0" encoding="UTF-8" standalone="no"?>
<!-- Created with Inkscape (http://www.inkscape.org/) -->

<svg
   xmlns:dc="http://purl.org/dc/elements/1.1/"
   xmlns:cc="http://creativecommons.org/ns#"
   xmlns:rdf="http://www.w3.org/1999/02/22-rdf-syntax-ns#"
   xmlns:svg="http://www.w3.org/2000/svg"
   xmlns="http://www.w3.org/2000/svg"
   xmlns:sodipodi="http://sodipodi.sourceforge.net/DTD/sodipodi-0.dtd"
   xmlns:inkscape="http://www.inkscape.org/namespaces/inkscape"
   version="1.1"
   width="748.04852"
   height="560.64874"
   id="svg4857"
   xml:space="preserve"
   inkscape:version="0.47 r22583"
   sodipodi:docname="nrk_super.svg"><metadata
     id="metadata10"><rdf:RDF><cc:Work
         rdf:about=""><dc:format>image/svg+xml</dc:format><dc:type
           rdf:resource="http://purl.org/dc/dcmitype/StillImage" /></cc:Work></rdf:RDF></metadata><sodipodi:namedview
     pagecolor="#ffffff"
     bordercolor="#666666"
     borderopacity="1"
     objecttolerance="10"
     gridtolerance="10"
     guidetolerance="10"
     inkscape:pageopacity="0"
     inkscape:pageshadow="2"
     inkscape:window-width="640"
     inkscape:window-height="489"
     id="namedview8"
     showgrid="false"
     inkscape:zoom="0.42094092"
     inkscape:cx="374.02426"
     inkscape:cy="280.32437"
     inkscape:window-x="0"
     inkscape:window-y="25"
     inkscape:window-maximized="0"
     inkscape:current-layer="svg4857" /><defs
     id="defs4861"><inkscape:perspective
       sodipodi:type="inkscape:persp3d"
       inkscape:vp_x="0 : 280.32437 : 1"
       inkscape:vp_y="0 : 1000 : 0"
       inkscape:vp_z="748.04852 : 280.32437 : 1"
       inkscape:persp3d-origin="374.02426 : 186.88291 : 1"
       id="perspective12" /><clipPath
       id="clipPath4875"><path
         d="m 0,0 6120,0 0,2133.19 -6120,0 L 0,0 z"
         id="path4877" /></clipPath></defs><g
     transform="matrix(1.25,0,0,-1.25,-10,850.64875)"
     id="g4867"
     style="fill:#000000"><path
       d="m 386.50959,342.47387 c -4.43433,0 -8.04865,-3.60634 -8.04865,-8.04887 l 0,-44.85232 c 0,-10.84549 -10.96493,-12.02083 -15.67469,-12.02083 -4.67192,0 -15.53592,1.17534 -15.53592,12.02083 l 0,44.85232 c 0,4.44253 -3.60381,8.04887 -8.04866,8.04887 -4.43222,0 -8.04865,-3.60634 -8.04865,-8.04887 l 0,-44.85232 c 0,-8.66071 3.55125,-16.23818 9.99984,-21.33292 5.81993,-4.44485 13.29037,-6.7848 21.63339,-6.7848 8.42922,0 15.96274,2.33995 21.76584,6.7684 6.46332,5.2352 10.01036,12.80678 10.01036,21.34932 l 0,44.85232 c 0,4.44253 -3.61222,8.04887 -8.05286,8.04887 z m -94.13014,-31.85905 c -13.66463,3.65491 -13.62888,7.02323 -13.61206,8.12708 0,5.78608 3.60171,8.64768 10.7021,8.64768 3.21484,0 8.88548,-0.81979 10.89344,-6.31193 0.69595,-2.01216 2.13201,-3.61621 4.04114,-4.51233 1.88391,-0.88708 4.07689,-0.97728 6.01547,-0.24958 2.0416,0.62405 3.76991,2.1337 4.70766,4.13114 0.90201,1.91376 0.96718,4.0853 0.18713,5.95449 -3.78674,10.59508 -13.44806,16.93813 -25.84484,16.93813 -15.94172,0 -26.65433,-9.83122 -26.65433,-24.45063 0,-3.96125 1.23841,-11.46155 9.51835,-17.14417 4.03274,-2.83848 8.51543,-4.0729 15.93331,-6.10567 l 0.20184,-0.0551 c 13.13058,-3.60801 13.13058,-5.48141 13.13058,-8.87685 0,-8.99503 -9.22189,-9.96831 -13.18945,-9.96831 -5.53608,0 -11.8438,2.27667 -12.90139,8.64516 -0.31539,2.05253 -1.46129,3.86936 -3.21904,5.10547 -1.75145,1.23841 -3.94864,1.71969 -6.01337,1.32062 -4.3313,-0.83283 -7.20552,-4.9032 -6.40864,-9.07891 1.96801,-13.11144 13.43545,-21.94057 28.54244,-21.94057 17.0729,0 29.00711,10.65563 29.00711,25.91654 0,6.20848 -1.45287,9.90102 -5.53607,14.12509 -3.98859,4.14859 -10.36569,7.34828 -19.50138,9.78264 z m 245.56594,0.25063 c -1.6316,-0.004 -31.31574,-0.13877 -31.31574,-0.13877 0.19133,0 0.10933,2.89756 0.10933,2.89756 0,9.40902 8.36404,12.7559 15.53382,12.7559 7.22865,0 15.67259,-3.34688 15.67259,-12.7559 l 0,-2.75879 z m 6.25726,24.23217 c -5.83254,4.75623 -13.61627,7.37625 -21.92985,7.37625 -8.22737,0 -15.96064,-2.62002 -21.79528,-7.37226 -6.34978,-5.28755 -9.84005,-12.91359 -9.84005,-21.47737 l 0,-24.05156 c 0,-8.66071 3.55125,-16.23818 10.00194,-21.33292 5.81152,-4.44485 13.29038,-6.7848 21.63339,-6.7848 14.00525,0 25.08161,6.40213 29.63368,17.12126 0.0294,0.0862 0.39528,2.4474 0.39528,2.4474 0,4.44673 -3.61853,8.06778 -8.06547,8.06778 -3.14545,0 -6.01757,-1.83975 -7.33378,-4.68895 -2.98145,-6.17946 -11.22354,-6.8506 -14.62971,-6.8506 -4.67192,0 -15.53382,1.17534 -15.53382,12.02083 l 0,6.61912 c 1.67155,0.008 40.57758,0.0418 40.57758,0.0418 3.96756,0.67682 6.72613,3.99068 6.72613,7.90105 l 0,9.48955 c 0,8.56378 -3.49027,16.18982 -9.84004,21.47338 z m 54.17913,7.37625 c -4.92213,0 -9.54779,-1.25335 -13.49643,-3.55545 -1.43185,2.15913 -3.88555,3.55545 -6.56844,3.55545 -4.43853,0 -8.04865,-3.60634 -8.04865,-8.04887 l 0,-64.91697 c 0,-4.43853 3.61012,-8.05307 8.04865,-8.05307 4.44064,0 8.05076,3.61454 8.05076,8.05307 l 0,41.77625 c 0,2.51657 0.58031,15.09586 12.01411,15.09586 4.51422,0 8.05706,3.46504 8.05706,7.89768 0,4.52474 -3.61853,8.19605 -8.05706,8.19605 z M 459.2145,290.30858 c 0,-9.41301 -8.44394,-12.75673 -15.67048,-12.75673 -7.5083,0 -15.53803,3.35592 -15.53803,12.75673 l 0,24.05156 c 0,10.84066 10.864,12.02 15.53803,12.02 4.70976,0 15.67048,-1.17934 15.67048,-12.02 l 0,-24.05156 z m 6.11008,45.38196 c -5.82413,4.44674 -13.34714,6.78333 -21.78056,6.78333 -6.40655,0 -12.37576,-1.42176 -17.35886,-4.05818 -1.57272,1.8858 -3.82668,3.03149 -6.22992,3.03149 -4.43854,0 -8.04235,-3.60549 -8.04235,-8.04403 l 0,-93.35834 c 0,-4.43923 3.60381,-8.04481 8.04235,-8.04481 4.43853,0 8.05075,3.60558 8.05075,8.04481 l 0,24.87519 c 4.63618,-2.26258 9.83795,-3.46504 15.53803,-3.46504 8.5007,0 16.29284,2.62002 21.94456,7.38445 6.33716,5.27935 9.82323,12.90118 9.82323,21.46917 l 0,24.05156 c 0,8.53834 -3.54494,16.11434 -9.98723,21.3304 z m -409.898499,5.58423 -17.915403,0.008 17.981214,-79.57843 30.33699,0 -14.955399,66.81749 c -1.423232,7.25808 -7.80076,12.7519 -15.447402,12.7519 z m 179.696069,-0.004 -30.64144,0.004 c 0,0 -18.43621,-30.09393 -20.94857,-34.28184 -2.50585,-4.18055 -2.40661,-6.79152 0.1026,-11.07888 2.51888,-4.29136 20.84597,-34.20867 20.84597,-34.20867 l 30.64144,0 c 0,0 -21.68994,35.63211 -21.93636,36.08374 -1.67218,2.83848 -1.76995,4.57983 -0.16337,7.30245 l 22.09973,36.17899 z m -102.18825,1.66735 c -8.70928,-0.004 -15.7447,-7.1086 -15.7447,-15.86792 0.01,-8.75932 7.03542,-15.86792 15.73419,-15.87191 8.68783,0.0126 15.74786,7.12079 15.74786,15.87191 -0.003,8.75932 -7.06003,15.86371 -15.73735,15.86792 z m 17.48101,-81.22433 27.88287,-0.008 0,79.56939 -27.88287,0 0,-79.56119 z m -62.865281,-0.008 27.894431,0 0,79.56939 -27.894431,0 0,-79.56939 z M 8,261.71358 l 27.889594,-0.008 0.0032,79.56939 -27.8828922,0 L 8,261.71358 z m 299.22152,155.0436 c -64.79713,0 -117.51391,52.72015 -117.51391,117.51728 0,64.80344 52.71678,117.51917 117.51391,117.51917 64.80344,0 117.52338,-52.71573 117.52338,-117.51917 0,-64.79713 -52.71994,-117.51728 -117.52338,-117.51728 z m -0.004,263.76182 c -80.63582,0 -146.24265,-65.60662 -146.24265,-146.24664 0,-80.63792 65.60683,-146.24244 146.24265,-146.24244 80.64212,0 146.24664,65.60452 146.24664,146.24244 0,80.64002 -65.60452,146.24664 -146.24664,146.24664 z M 259.03473,555.9562 c -12.38416,0 -22.42185,-10.03558 -22.42185,-22.42185 0,-12.37785 10.03769,-22.41764 22.42185,-22.41764 12.38416,0 22.41975,10.03979 22.41975,22.41764 0,12.38627 -10.03559,22.42185 -22.41975,22.42185 z m 124.23269,-10.68107 -18.75075,0.99662 c -0.95037,0.0462 -2.01006,0.81369 -2.35278,1.70308 l -6.73665,17.52706 c -0.34062,0.89149 -0.8999,0.89149 -1.23632,0 l -6.74505,-17.52706 c -0.34272,-0.88939 -1.39821,-1.65683 -2.34437,-1.70308 l -18.75286,-0.99662 c -0.95247,-0.0484 -1.12488,-0.58031 -0.38267,-1.17744 l 14.58766,-11.82488 c 0.74011,-0.59923 1.1459,-1.84186 0.8999,-2.76489 l -4.85484,-18.1368 c -0.2418,-0.92093 0.20395,-1.24893 1.00293,-0.7317 l 15.75458,10.22272 c 0.80108,0.51513 2.10468,0.51513 2.90156,0 l 15.75669,-10.22272 c 0.79687,-0.51723 1.24892,-0.18923 1.00292,0.7317 l -4.85484,18.1368 c -0.2418,0.92303 0.1598,2.16566 0.902,2.76489 l 14.58766,11.82488 c 0.74011,0.59713 0.5677,1.12908 -0.38477,1.17744"
       id="path4879"
       style="fill:#000000;fill-opacity:1;fill-rule:nonzero;stroke:none" /></g></svg>