<?xml version="1.0" encoding="UTF-8" standalone="no"?>
<!-- Created with Inkscape (http://www.inkscape.org/) -->

<svg
   xmlns:dc="http://purl.org/dc/elements/1.1/"
   xmlns:cc="http://creativecommons.org/ns#"
   xmlns:rdf="http://www.w3.org/1999/02/22-rdf-syntax-ns#"
   xmlns:svg="http://www.w3.org/2000/svg"
   xmlns="http://www.w3.org/2000/svg"
   xmlns:sodipodi="http://sodipodi.sourceforge.net/DTD/sodipodi-0.dtd"
   xmlns:inkscape="http://www.inkscape.org/namespaces/inkscape"
   version="1.1"
   width="740.33069"
   height="154.77361"
   id="svg3559"
   xml:space="preserve"
   inkscape:version="0.47 r22583"
   sodipodi:docname="nrk_p2.svg"><metadata
     id="metadata15"><rdf:RDF><cc:Work
         rdf:about=""><dc:format>image/svg+xml</dc:format><dc:type
           rdf:resource="http://purl.org/dc/dcmitype/StillImage" /></cc:Work></rdf:RDF></metadata><sodipodi:namedview
     pagecolor="#ffffff"
     bordercolor="#666666"
     borderopacity="1"
     objecttolerance="10"
     gridtolerance="10"
     guidetolerance="10"
     inkscape:pageopacity="0"
     inkscape:pageshadow="2"
     inkscape:window-width="640"
     inkscape:window-height="489"
     id="namedview13"
     showgrid="false"
     inkscape:zoom="0.73075452"
     inkscape:cx="370.16534"
     inkscape:cy="77.386803"
     inkscape:window-x="0"
     inkscape:window-y="25"
     inkscape:window-maximized="0"
     inkscape:current-layer="svg3559" /><defs
     id="defs3563"><inkscape:perspective
       sodipodi:type="inkscape:persp3d"
       inkscape:vp_x="0 : 77.386803 : 1"
       inkscape:vp_y="0 : 1000 : 0"
       inkscape:vp_z="740.33069 : 77.386803 : 1"
       inkscape:persp3d-origin="370.16534 : 51.591202 : 1"
       id="perspective17" /></defs><g
     transform="matrix(1.25,0,0,-1.25,-11.571242,981.68466)"
     id="g3569"
     style="fill:#000000"><path
       d="m 541.78827,684.95827 c 2.08493,9.33007 9.79266,17.43524 29.70376,27.28003 19.1097,9.49295 27.63186,18.90121 27.63186,36.24523 0,18.49074 -13.82571,35.20929 -40.48025,35.20929 -16.41232,0 -31.18928,-5.42083 -42.70201,-16.38626 l 14.99848,-17.79359 c 7.46666,6.48935 17.03128,11.23257 28.50492,11.23257 13.49342,0 16.96613,-7.50576 16.96613,-12.92658 0,-5.17975 -1.55067,-9.33658 -11.18696,-13.83222 -27.45594,-12.9396 -51.05476,-30.89608 -51.69979,-72.34061 l 87.99713,0 0,23.31214 -59.73327,0"
       id="path3573"
       style="fill:#000000;fill-opacity:1;fill-rule:nonzero;stroke:none" /><path
       d="m 9.2569934,661.83508 42.3832686,0 0,120.95535 -42.3832686,0 0,-120.95535 z"
       id="path3575"
       style="fill:#000000;fill-opacity:1;fill-rule:nonzero;stroke:none" /><path
       d="m 130.21234,661.83508 42.39598,0 0,120.95535 -42.39598,0 0,-120.95535 z"
       id="path3577"
       style="fill:#000000;fill-opacity:1;fill-rule:nonzero;stroke:none" /><path
       d="m 225.79278,661.83508 42.40868,0 0,120.95535 -42.40868,0 0,-120.95535 z"
       id="path3579"
       style="fill:#000000;fill-opacity:1;fill-rule:nonzero;stroke:none" /><path
       d="m 199.18384,785.34773 c -13.19632,0 -23.91091,-10.82861 -23.91091,-24.1396 0,-13.33705 10.71459,-24.12657 23.91091,-24.12657 13.21651,0 23.96238,10.78952 23.96238,24.12657 0,13.31099 -10.74587,24.1396 -23.96238,24.1396"
       id="path3581"
       style="fill:#000000;fill-opacity:1;fill-rule:nonzero;stroke:none" /><path
       d="m 321.21553,716.69484 c -2.50713,4.28714 -2.64656,6.94543 -0.21631,11.09575 l 33.6078,55.0031 -46.61321,0 c 0,0 -28.03386,-45.75122 -31.83886,-52.15587 -3.81738,-6.31995 -3.66492,-10.30086 0.15246,-16.82931 3.805,-6.50238 31.6864,-51.97343 31.6864,-51.97343 l 46.61321,0 c 0,0 -32.99665,54.17564 -33.39149,54.85976"
       id="path3583"
       style="fill:#000000;fill-opacity:1;fill-rule:nonzero;stroke:none" /><path
       d="m 104.84524,763.41034 c -2.17093,11.06968 -11.867821,19.38335 -23.486102,19.38335 l -27.237025,0 27.326286,-120.95861 46.129761,0 -22.73292,101.57526"
       id="path3585"
       style="fill:#000000;fill-opacity:1;fill-rule:nonzero;stroke:none" /><path
       d="m 482.66808,743.83804 c 0,-10.58754 -6.05738,-15.76729 -17.31927,-15.76729 l -28.23779,0 0,31.16321 27.91463,0 c 10.74,0 17.64243,-4.84746 17.64243,-15.39592 m 24.92731,0.49518 c 0,25.8336 -18.88297,38.46047 -41.72991,38.46047 l -52.98853,0 0,-121.26484 24.23407,0 0,42.9952 26.67996,0 c 25.09997,0 43.80441,11.77335 43.80441,39.80917"
       id="path3587"
       style="fill:#000000;fill-opacity:1;fill-rule:nonzero;stroke:none" /></g></svg>