<?xml version="1.0" encoding="UTF-8" standalone="no"?>
<!-- Created with Inkscape (http://www.inkscape.org/) -->

<svg
   xmlns:dc="http://purl.org/dc/elements/1.1/"
   xmlns:cc="http://creativecommons.org/ns#"
   xmlns:rdf="http://www.w3.org/1999/02/22-rdf-syntax-ns#"
   xmlns:svg="http://www.w3.org/2000/svg"
   xmlns="http://www.w3.org/2000/svg"
   xmlns:sodipodi="http://sodipodi.sourceforge.net/DTD/sodipodi-0.dtd"
   xmlns:inkscape="http://www.inkscape.org/namespaces/inkscape"
   version="1.1"
   width="747.80389"
   height="124.29676"
   id="svg2837"
   xml:space="preserve"
   inkscape:version="0.47 r22583"
   sodipodi:docname="nrk_alltidnyheter.svg"><metadata
     id="metadata26"><rdf:RDF><cc:Work
         rdf:about=""><dc:format>image/svg+xml</dc:format><dc:type
           rdf:resource="http://purl.org/dc/dcmitype/StillImage" /></cc:Work></rdf:RDF></metadata><sodipodi:namedview
     pagecolor="#ffffff"
     bordercolor="#666666"
     borderopacity="1"
     objecttolerance="10"
     gridtolerance="10"
     guidetolerance="10"
     inkscape:pageopacity="0"
     inkscape:pageshadow="2"
     inkscape:window-width="1214"
     inkscape:window-height="732"
     id="namedview24"
     showgrid="false"
     inkscape:zoom="1.4319561"
     inkscape:cx="568.1098"
     inkscape:cy="99.522884"
     inkscape:window-x="0"
     inkscape:window-y="25"
     inkscape:window-maximized="0"
     inkscape:current-layer="svg2837" /><defs
     id="defs2841"><inkscape:perspective
       sodipodi:type="inkscape:persp3d"
       inkscape:vp_x="0 : 62.14838 : 1"
       inkscape:vp_y="0 : 1000 : 0"
       inkscape:vp_z="747.80389 : 62.14838 : 1"
       inkscape:persp3d-origin="373.90195 : 41.432254 : 1"
       id="perspective28" /></defs><g
     transform="matrix(1.25,0,0,-1.25,-6.232375,978.48125)"
     id="g2847"
     style="fill:#000000"><path
       d="m 342.96052,683.43137 -15.68932,23.30278 c -1.03318,1.6024 -2.44863,3.73368 -3.00737,4.84384 0,-1.59716 0.11259,-6.96989 0.11259,-9.3473 l 0,-18.79932 -8.39686,0 0,42.69384 8.16173,0 15.14734,-22.53824 c 1.03265,-1.60239 2.42977,-3.74416 2.9927,-4.83336 0,1.57097 -0.12306,6.9437 -0.12306,9.33682 l 0,18.03478 8.39686,0 0,-42.69384 -7.59461,0"
       id="path2851"
       style="fill:#000000;fill-opacity:1;fill-rule:nonzero;stroke:none" /><path
       d="m 382.13223,700.32458 0,-16.89321 -8.54401,0 0,16.69946 -16.16008,25.99438 9.81282,0 6.0404,-10.11184 c 1.50761,-2.56592 3.80856,-6.7709 4.62704,-8.34187 0.79753,1.57097 3.05397,5.63456 4.65375,8.34187 l 6.01369,10.11184 9.72223,0 -16.16584,-25.80063"
       id="path2853"
       style="fill:#000000;fill-opacity:1;fill-rule:nonzero;stroke:none" /><path
       d="m 431.18117,683.43137 0,17.95623 -17.47446,0 0,-17.95623 -8.59323,0 0,42.69384 8.59323,0 0,-16.32242 17.47446,0 0,16.32242 8.55134,0 0,-42.69384 -8.55134,0"
       id="path2855"
       style="fill:#000000;fill-opacity:1;fill-rule:nonzero;stroke:none" /><path
       d="m 450.72933,683.43137 0,42.69384 29.66522,0 0,-8.34187 -21.16626,0 0,-7.39405 12.27455,0 0,-8.28427 -12.27455,0 0,-10.31083 22.0879,0 0,-8.36282 -30.58686,0"
       id="path2857"
       style="fill:#000000;fill-opacity:1;fill-rule:nonzero;stroke:none" /><path
       d="m 508.45214,717.74144 0,-34.31007 -8.5618,0 0,34.31007 -12.27455,0 0,8.38377 33.10566,0 0,-8.38377 -12.26931,0"
       id="path2859"
       style="fill:#000000;fill-opacity:1;fill-rule:nonzero;stroke:none" /><path
       d="m 528.93764,683.43137 0,42.69384 29.68094,0 0,-8.34187 -21.10342,0 0,-7.39405 12.2536,0 0,-8.28427 -12.2536,0 0,-10.31083 22.02506,0 0,-8.36282 -30.60258,0"
       id="path2861"
       style="fill:#000000;fill-opacity:1;fill-rule:nonzero;stroke:none" /><path
       d="m 593.40518,683.43137 -7.63494,15.37984 -8.58799,0 0,-15.37984 -8.57752,0 0,42.69384 19.91995,0 c 8.03815,0 14.70432,-4.41444 14.70432,-13.54703 0,-6.38863 -2.73349,-10.39985 -8.22143,-12.53638 l 8.22143,-16.61043 -9.82382,0 m -5.06378,34.42528 -11.15915,0 0,-10.98635 11.15915,0 c 3.97457,0 6.10586,1.82757 6.10586,5.54554 0,3.84889 -2.32505,5.44081 -6.10586,5.44081"
       id="path2863"
       style="fill:#000000;fill-opacity:1;fill-rule:nonzero;stroke:none" /><path
       d="m 344.62313,738.0489 -3.37079,9.48868 -15.62176,0 -3.37131,-9.48868 -9.13312,0 16.36012,42.72002 8.27851,0 16.25173,-42.72002 -9.39338,0 m -9.06766,25.3817 c -0.85304,2.49785 -1.71236,5.03759 -2.14176,6.66093 -0.42521,-1.62334 -1.24788,-4.16308 -2.09254,-6.66093 l -2.75549,-7.75014 9.76779,0 -2.778,7.75014"
       id="path2865"
       style="fill:#000000;fill-opacity:1;fill-rule:nonzero;stroke:none" /><path
       d="m 363.76335,738.0489 0,42.72002 8.56652,0 0,-34.2996 21.40662,0 0,-8.42042 -29.97314,0"
       id="path2867"
       style="fill:#000000;fill-opacity:1;fill-rule:nonzero;stroke:none" /><path
       d="m 403.4273,738.0489 0,42.72002 8.56705,0 0,-34.2996 21.39666,0 0,-8.42042 -29.96371,0"
       id="path2869"
       style="fill:#000000;fill-opacity:1;fill-rule:nonzero;stroke:none" /><path
       d="m 465.39699,772.3485 0,8.42042 -33.09519,0 0,-8.42042 12.24836,0 0,-34.2996 8.57228,0 0,34.2996 12.27455,0"
       id="path2871"
       style="fill:#000000;fill-opacity:1;fill-rule:nonzero;stroke:none" /><path
       d="m 476.0639,738.0489 8.51965,0 0,42.71698 -8.51965,0 0,-42.71698 z"
       id="path2873"
       style="fill:#000000;fill-opacity:1;fill-rule:nonzero;stroke:none" /><path
       d="m 523.86863,759.40891 c 0,-7.82345 -4.11071,-13.0548 -13.06003,-13.0548 l -4.23639,0 0,26.10959 4.52964,0 c 9.02787,0 12.76678,-4.34636 12.76678,-13.05479 m 8.76604,0 c 0,15.61024 -9.02263,21.36001 -21.2291,21.36001 l -13.37946,0 0,-42.72002 12.78249,0 c 10.97064,0 21.82607,6.35721 21.82607,21.36001"
       id="path2875"
       style="fill:#000000;fill-opacity:1;fill-rule:nonzero;stroke:none" /><path
       d="m 4.9859,683.34759 34.148208,0 0,97.42918 -34.148208,0 0,-97.42918 z"
       id="path2877"
       style="fill:#000000;fill-opacity:1;fill-rule:nonzero;stroke:none" /><path
       d="m 102.38628,683.34759 34.14413,0 0,97.42918 -34.14413,0 0,-97.42918 z"
       id="path2879"
       style="fill:#000000;fill-opacity:1;fill-rule:nonzero;stroke:none" /><path
       d="m 179.36191,683.34759 34.14208,0 0,97.42918 -34.14208,0 0,-97.42918 z"
       id="path2881"
       style="fill:#000000;fill-opacity:1;fill-rule:nonzero;stroke:none" /><path
       d="m 157.9354,782.785 c -10.62659,0 -19.24653,-8.69796 -19.24653,-19.42771 0,-10.70881 8.61994,-19.40153 19.24653,-19.40153 10.64701,0 19.27899,8.69272 19.27899,19.40153 0,10.72975 -8.63198,19.42771 -19.27899,19.42771"
       id="path2883"
       style="fill:#000000;fill-opacity:1;fill-rule:nonzero;stroke:none" /><path
       d="m 256.19877,727.5129 c -2.03965,3.48233 -2.14176,5.59267 -0.17805,8.93884 l 27.07679,44.32765 -37.55989,0 c 0,0 -22.544,-36.87076 -25.63097,-41.99213 -3.06811,-5.12661 -2.9372,-8.32093 0.12516,-13.56798 3.07806,-5.268 25.50581,-41.87169 25.50581,-41.87169 l 37.55989,0 c 0,0 -26.5835,43.62071 -26.89874,44.16531"
       id="path2885"
       style="fill:#000000;fill-opacity:1;fill-rule:nonzero;stroke:none" /><path
       d="m 100.24505,683.39995 -18.285094,81.7273 c -1.741163,8.92314 -9.53267,15.65214 -18.894627,15.65214 l -21.936556,0 22.046524,-97.4318 37.090173,0 -0.0204,0.0524"
       id="path2887"
       style="fill:#000000;fill-opacity:1;fill-rule:nonzero;stroke:none" /></g></svg>