<?xml version="1.0" encoding="UTF-8" standalone="no"?>
<!-- Created with Inkscape (http://www.inkscape.org/) -->

<svg
   xmlns:dc="http://purl.org/dc/elements/1.1/"
   xmlns:cc="http://creativecommons.org/ns#"
   xmlns:rdf="http://www.w3.org/1999/02/22-rdf-syntax-ns#"
   xmlns:svg="http://www.w3.org/2000/svg"
   xmlns="http://www.w3.org/2000/svg"
   xmlns:sodipodi="http://sodipodi.sourceforge.net/DTD/sodipodi-0.dtd"
   xmlns:inkscape="http://www.inkscape.org/namespaces/inkscape"
   version="1.1"
   width="749.71033"
   height="87.442703"
   id="svg3749"
   xml:space="preserve"
   inkscape:version="0.47 r22583"
   sodipodi:docname="nrk_samiradio.svg"><metadata
     id="metadata22"><rdf:RDF><cc:Work
         rdf:about=""><dc:format>image/svg+xml</dc:format><dc:type
           rdf:resource="http://purl.org/dc/dcmitype/StillImage" /></cc:Work></rdf:RDF></metadata><sodipodi:namedview
     pagecolor="#ffffff"
     bordercolor="#666666"
     borderopacity="1"
     objecttolerance="10"
     gridtolerance="10"
     guidetolerance="10"
     inkscape:pageopacity="0"
     inkscape:pageshadow="2"
     inkscape:window-width="640"
     inkscape:window-height="489"
     id="namedview20"
     showgrid="false"
     inkscape:zoom="0.72161204"
     inkscape:cx="374.85516"
     inkscape:cy="43.721352"
     inkscape:window-x="0"
     inkscape:window-y="25"
     inkscape:window-maximized="0"
     inkscape:current-layer="svg3749" /><defs
     id="defs3753"><inkscape:perspective
       sodipodi:type="inkscape:persp3d"
       inkscape:vp_x="0 : 43.721352 : 1"
       inkscape:vp_y="0 : 1000 : 0"
       inkscape:vp_z="749.71033 : 43.721352 : 1"
       inkscape:persp3d-origin="374.85516 : 29.147568 : 1"
       id="perspective24" /></defs><g
     transform="matrix(1.25,0,0,-1.25,-7.9522874,984.49345)"
     id="g3759"
     style="fill:#000000"><path
       d="m 6.3618299,718.85298 18.6859611,0 0,53.32733 -18.6859611,0 0,-53.32733 z"
       id="path3763"
       style="fill:#000000;fill-opacity:1;fill-rule:nonzero;stroke:none" /><path
       d="m 59.671101,718.85298 18.68596,0 0,53.32733 -18.68596,0 0,-53.32733 z"
       id="path3765"
       style="fill:#000000;fill-opacity:1;fill-rule:nonzero;stroke:none" /><path
       d="m 101.80152,718.85298 18.68596,0 0,53.32733 -18.68596,0 0,-53.32733 z"
       id="path3767"
       style="fill:#000000;fill-opacity:1;fill-rule:nonzero;stroke:none" /><path
       d="m 90.073802,773.27833 c -5.816281,0 -10.535399,-4.74634 -10.535399,-10.62482 0,-5.85555 4.719118,-10.62482 10.535399,-10.62482 5.827459,0 10.552028,4.76927 10.552028,10.62482 0,5.87848 -4.724569,10.62482 -10.552028,10.62482"
       id="path3769"
       style="fill:#000000;fill-opacity:1;fill-rule:nonzero;stroke:none" /><path
       d="m 143.85885,743.0261 c -1.11951,1.90886 -1.17569,3.06105 -0.10088,4.89826 l 14.82344,24.25624 -20.56119,0 c 0,0 -12.33793,-20.18057 -14.02838,-22.9808 -1.67957,-2.80883 -1.60677,-4.55145 0.0671,-7.42907 1.68501,-2.88335 13.96131,-22.91775 13.96131,-22.91775 l 20.56119,0 c 0,0 -14.5546,23.87505 -14.72256,24.17312"
       id="path3771"
       style="fill:#000000;fill-opacity:1;fill-rule:nonzero;stroke:none" /><path
       d="M 58.495692,718.89311 48.49225,763.62227 c -0.957294,4.88106 -5.217542,8.55833 -10.345087,8.55833 l -12.007741,0 12.069363,-53.32762 20.298085,0 -0.01118,0.0401"
       id="path3773"
       style="fill:#000000;fill-opacity:1;fill-rule:nonzero;stroke:none" /><path
       d="m 196.78979,718.01893 c -8.91201,0 -16.68186,3.72887 -20.71367,9.67326 l 7.6916,6.85871 c 3.72944,-4.34509 8.53253,-6.10204 13.63228,-6.10204 6.319,0 9.2869,1.75695 9.2869,5.79249 0,3.42792 -1.82488,4.94984 -11.87447,7.23417 -9.83004,2.28432 -16.68186,5.40556 -16.68186,15.91574 0,9.67612 8.53254,15.61192 19.04415,15.61192 8.2975,0 14.38808,-3.12124 19.41932,-8.37489 l -7.6959,-7.46059 c -3.42592,3.49957 -7.2336,5.48294 -12.10835,5.48294 -5.70994,0 -7.6188,-2.43909 -7.6188,-4.80367 0,-3.35053 2.28289,-4.41674 10.74119,-6.39438 8.45285,-1.98051 17.81829,-4.88106 17.81829,-16.44884 0,-10.13185 -6.39725,-16.98482 -20.94068,-16.98482"
       id="path3775"
       style="fill:#000000;fill-opacity:1;fill-rule:nonzero;stroke:none" /><path
       d="m 517.47717,745.50819 c 0,-9.74491 -5.10175,-16.29407 -16.30267,-16.29407 l -5.25079,0 0,32.59961 5.63772,0 c 11.27544,0 15.91574,-5.41416 15.91574,-16.30554 z m 10.9659,0 c 0,19.49556 -11.26398,26.65808 -26.50044,26.65808 l -16.6896,0 0,-53.31329 15.92147,0 c 13.71454,0 27.26857,7.92778 27.26857,26.65521"
       id="path3777"
       style="fill:#000000;fill-opacity:1;fill-rule:nonzero;stroke:none" /><path
       d="m 412.64768,754.91777 c 0,-4.6489 -2.63399,-6.93322 -7.53511,-6.93322 l -13.80625,0 0,13.69447 13.80625,0 c 4.68329,0 7.53511,-1.98338 7.53511,-6.76125 m 10.83119,-36.06479 -10.08312,20.73088 c 6.71253,2.65119 10.08312,7.68128 10.08312,15.67498 0,11.33563 -8.22586,16.87877 -18.14847,16.87877 l -24.54286,0 0,-53.28463 10.51878,0 0,19.17456 10.65348,0 9.41531,-19.17456 12.10376,0"
       id="path3779"
       style="fill:#000000;fill-opacity:1;fill-rule:nonzero;stroke:none" /><path
       d="m 583.00599,718.01607 c -14.52565,0 -23.12124,11.25824 -23.12124,27.46346 0,16.19949 8.59559,27.4606 23.12124,27.4606 14.52566,0 23.12411,-11.26111 23.12411,-27.4606 0,-16.20522 -8.59845,-27.46346 -23.12411,-27.46346 z m 0,44.34796 c -8.59272,0 -12.16968,-7.37461 -12.16968,-16.8845 0,-9.50702 3.57696,-16.88736 12.16968,-16.88736 8.59846,0 12.16968,7.38034 12.16968,16.88736 0,9.50989 -3.57122,16.8845 -12.16968,16.8845"
       id="path3781"
       style="fill:#000000;fill-opacity:1;fill-rule:nonzero;stroke:none" /><path
       d="m 316.69466,718.85298 0,19.55289 c 0,2.88908 0.14904,9.6618 0.14904,11.71396 -0.75953,-1.98338 -2.35597,-5.78103 -3.73172,-8.82488 l -10.7968,-23.65435 -10.79966,23.65435 c -1.37288,3.04385 -2.97219,6.8415 -3.73459,8.82488 0,-2.05216 0.15477,-8.82488 0.15477,-11.71396 l 0,-19.55289 -10.42133,0 0,53.24737 10.26656,0 11.10634,-24.11007 c 1.37575,-2.96933 2.97219,-7.00201 3.65721,-8.90227 0.68501,1.97478 2.20407,5.85842 3.57409,8.90227 l 10.72513,24.11007 10.49299,0 0,-53.24737 -10.64203,0"
       id="path3783"
       style="fill:#000000;fill-opacity:1;fill-rule:nonzero;stroke:none" /><path
       d="m 341.36076,718.85298 10.6518,0 0,53.24765 -10.6518,0 0,-53.24765 z"
       id="path3785"
       style="fill:#000000;fill-opacity:1;fill-rule:nonzero;stroke:none" /><path
       d="m 539.05069,718.85298 10.65292,0 0,53.24765 -10.65292,0 0,-53.24765 z"
       id="path3787"
       style="fill:#000000;fill-opacity:1;fill-rule:nonzero;stroke:none" /><path
       d="m 466.68037,718.85298 -4.21038,11.82574 -19.46976,0 -4.20465,-11.82574 -11.38435,0 20.3984,53.2531 10.31814,0 20.25796,-53.2531 -11.70536,0 M 455.3734,750.4953 c -1.05761,3.10977 -2.13241,6.27973 -2.66552,8.2975 -0.53597,-2.01777 -1.55632,-5.18773 -2.61393,-8.2975 l -3.43078,-9.66753 12.17541,0 -3.46518,9.66753"
       id="path3789"
       style="fill:#000000;fill-opacity:1;fill-rule:nonzero;stroke:none" /><path
       d="m 259.27419,718.85298 -4.17885,11.84867 -19.44397,0 -4.17885,-11.84867 -11.3941,0 20.35655,53.16998 10.33248,0 20.2035,-53.16998 -11.69676,0 z m -11.09201,56.58643 -8.88507,0 6.60648,12.15535 13.29034,0 -11.01175,-12.15535 z m -0.15191,-24.98997 c -1.06334,3.1155 -2.12668,6.30553 -2.65692,8.28031 -0.5331,-1.97478 -1.59358,-5.16481 -2.65692,-8.28031 l -3.41932,-9.6446 12.15248,0 -3.41932,9.6446"
       id="path3791"
       style="fill:#000000;fill-opacity:1;fill-rule:nonzero;stroke:none" /></g></svg>