<?xml version="1.0" encoding="UTF-8" standalone="no"?>
<!-- Created with Inkscape (http://www.inkscape.org/) -->

<svg
   xmlns:svg="http://www.w3.org/2000/svg"
   xmlns="http://www.w3.org/2000/svg"
   version="1.1"
   width="742.6983"
   height="960.1947"
   id="svg3687"
   xml:space="preserve"><defs
     id="defs3691" /><g
     transform="matrix(1.25,0,0,-1.25,-13.107138,975.86945)"
     id="g3697"><path
       d="m 229.63831,491.08825 0,115.04709 -1.409,0 c -120.07226,0 -217.7436,-97.68764 -217.7436,-217.76106 l 0,-375.834461 115.08315,0 0,375.834461 c 0,56.62765 46.05374,102.71397 102.66045,102.71397 l 1.409,0 z m -71.75085,-478.548431 29.73679,0 0,84.7495 -29.73679,0 0,-84.7495 z m 84.7495,0 29.70072,0 0,84.7495 -29.70072,0 0,-84.7495 z m 66.90602,0 29.72748,0 0,84.7495 -29.72748,0 0,-84.7495 z m -18.60789,86.49475 c -9.25333,0 -16.7521,-7.539496 -16.7521,-16.870783 0,-9.308017 7.49877,-16.894051 16.7521,-16.894051 9.25799,0 16.73931,7.586034 16.73931,16.894051 0,9.331287 -7.48132,16.870783 -16.73931,16.870783 z m 108.84214,-1.74525 -32.63275,0 c 0,0 -19.63759,-32.042854 -22.29735,-36.487432 -2.67606,-4.456213 -2.60392,-7.248618 0.0547,-11.844451 2.73656,-4.549294 22.24267,-36.417617 22.24267,-36.417617 l 32.63275,0 c 0,0 -23.09203,37.965074 -23.40152,38.453745 -1.76852,3.025106 -1.79994,4.863439 -0.12682,7.76056 l 23.52834,38.535195 z m -191.35887,0 -19.04886,0 19.14776,-84.7495 32.27438,0 0,0.06981 -15.94347,71.11325 c -1.50906,7.737289 -8.2853,13.56644 -16.42981,13.56644 z m 218.02401,505.239161 103.58892,70.12427 0,108.04281 -355.35915,0 0,-95.1163 218.45567,0 -131.13832,-79.44392 0,-115.04709 124.90311,0 c 56.62533,0 102.67441,-46.05142 102.67441,-102.71397 l 0,-12.79853 c 0,-56.65091 -46.04908,-102.71396 -102.67441,-102.71396 l -229.00514,0 0,-115.04709 229.00514,0 c 120.08157,0 217.75175,97.66436 217.75175,217.76105 l 0,12.79853 c 0,106.57679 -76.94937,195.50326 -178.20198,214.1542"
       id="path3701"
       style="fill:#000000;fill-opacity:1;fill-rule:nonzero;stroke:none" /></g></svg>