<?xml version="1.0" encoding="UTF-8" standalone="no"?>
<!-- Created with Inkscape (http://www.inkscape.org/) -->

<svg
   xmlns:svg="http://www.w3.org/2000/svg"
   xmlns="http://www.w3.org/2000/svg"
   version="1.1"
   width="734.52808"
   height="457.26849"
   id="svg3499"
   xml:space="preserve"><defs
     id="defs3503" /><g
     transform="matrix(1.25,0,0,-1.25,-17.24226,976.41095)"
     id="g3509"><g
       transform="matrix(0.20935524,0,0,0.20935524,-295.57043,-426.57881)"
       id="g3511"><path
         d="m 3879.13,5363.41 235.71,159.5 0,245.79 -808.53,0 0,-216.36 497.04,0 -298.34,-180.75 0,-261.62 284.14,0 c 128.77,0 233.6,-104.82 233.6,-233.66 l 0,-29.22 c 0,-128.76 -104.83,-233.57 -233.6,-233.57 l -520.97,0 0,-261.67 520.97,0 c 273.16,0 495.37,222.09 495.37,495.24 l 0,29.22 c 0,242.38 -175.04,444.63 -405.39,487.1 z m -496.02,-1149.32 -43.34,0 43.65,-192.73 73.37,0 0,0.14 -36.2,161.73 c -3.48,17.6 -18.93,30.86 -37.48,30.86 z m 435.3,0 -74.24,0 c 0,0 -44.65,-72.87 -50.7,-82.97 -6.04,-10.17 -5.9,-16.48 0.17,-26.99 6.2,-10.35 50.53,-82.77 50.53,-82.77 l 74.24,0 c 0,0 -52.48,86.35 -53.2,87.4 -3.99,6.92 -4.07,11.08 -0.26,17.76 l 53.46,87.57 z m -247.5,3.97 c -21.11,0 -38.14,-17.15 -38.14,-38.38 0,-21.12 17.03,-38.4 38.14,-38.4 21.05,0 38.07,17.28 38.07,38.4 0,21.23 -17.02,38.38 -38.07,38.38 z m 42.24,-196.7 67.66,0 0,192.73 -67.66,0 0,-192.73 z m -152.2,0 67.57,0 0,192.73 -67.57,0 0,-192.73 z m -192.77,0 67.66,0 0,192.73 -67.66,0 0,-192.73 z m 163.26,1088.61 0,261.62 -3.21,0 c -273.15,0 -495.32,-222.17 -495.32,-495.28 l 0,-854.95 261.76,0 0,854.95 c 0,128.84 104.78,233.66 233.56,233.66 l 3.21,0"
         id="path3513"
         style="fill:#100e0c;fill-opacity:1;fill-rule:nonzero;stroke:none" /><path
         d="m 2463.81,5162.29 -21.87,0 c -101.74,0 -199.85,-40.51 -273.4,-111.15 -73.54,70.64 -171.61,111.15 -273.35,111.15 l -21.9,0 c -218.15,0 -395.59,-177.45 -395.59,-395.68 l 0,-414.76 244.5,0 0,414.76 c 0,83.33 67.77,151.07 151.09,151.07 l 21.9,0 c 83.32,0 151.14,-67.74 151.14,-151.07 l 0,-414.76 244.47,0 0,414.76 c 0,83.33 67.8,151.07 151.14,151.07 l 21.87,0 c 83.32,0 151.09,-67.74 151.09,-151.07 l 0,-414.76 244.49,0 0,414.76 c 0,218.23 -177.45,395.68 -395.58,395.68"
         id="path3515"
         style="fill:#100e0c;fill-opacity:1;fill-rule:nonzero;stroke:none" /></g></g></svg>