<?xml version="1.0" encoding="UTF-8" standalone="no"?>
<!-- Created with Inkscape (http://www.inkscape.org/) -->

<svg
   xmlns:dc="http://purl.org/dc/elements/1.1/"
   xmlns:cc="http://creativecommons.org/ns#"
   xmlns:rdf="http://www.w3.org/1999/02/22-rdf-syntax-ns#"
   xmlns:svg="http://www.w3.org/2000/svg"
   xmlns="http://www.w3.org/2000/svg"
   xmlns:sodipodi="http://sodipodi.sourceforge.net/DTD/sodipodi-0.dtd"
   xmlns:inkscape="http://www.inkscape.org/namespaces/inkscape"
   id="svg3895"
   version="1.1"
   inkscape:version="0.47 r22583"
   width="749.71185"
   height="102.57465"
   xml:space="preserve"
   sodipodi:docname="nrk_sport.svg"><metadata
     id="metadata3901"><rdf:RDF><cc:Work
         rdf:about=""><dc:format>image/svg+xml</dc:format><dc:type
           rdf:resource="http://purl.org/dc/dcmitype/StillImage" /><dc:title /></cc:Work></rdf:RDF></metadata><defs
     id="defs3899"><inkscape:perspective
       sodipodi:type="inkscape:persp3d"
       inkscape:vp_x="0 : 0.5 : 1"
       inkscape:vp_y="0 : 1000 : 0"
       inkscape:vp_z="1 : 0.5 : 1"
       inkscape:persp3d-origin="0.5 : 0.33333333 : 1"
       id="perspective3903" /></defs><sodipodi:namedview
     pagecolor="#ffffff"
     bordercolor="#666666"
     borderopacity="1"
     objecttolerance="10"
     gridtolerance="10"
     guidetolerance="10"
     inkscape:pageopacity="0"
     inkscape:pageshadow="2"
     inkscape:window-width="1920"
     inkscape:window-height="1127"
     id="namedview3897"
     showgrid="false"
     inkscape:zoom="1"
     inkscape:cx="97.060919"
     inkscape:cy="-199.87825"
     inkscape:window-x="0"
     inkscape:window-y="25"
     inkscape:window-maximized="1"
     inkscape:current-layer="g3905" /><g
     id="g3905"
     inkscape:groupmode="layer"
     inkscape:label="ink_ext_XXXXXX"
     transform="matrix(1.25,0,0,-1.25,-7.390625,983.18125)"><path
       id="path3909"
       style="fill:#000000;fill-opacity:1;fill-rule:nonzero;stroke:none"
       d="m 290.04524,704.68892 c -11.27123,0 -20.99434,4.96381 -27.51899,12.73619 l 8.28998,8.23482 c 5.19545,-5.74868 12.81552,-9.35486 20.11061,-9.35486 10.83849,0 16.02545,3.82679 16.02545,11.5016 0,6.09232 -4.53234,9.13849 -17.45901,13.07134 -16.36061,4.97229 -24.20427,9.13849 -24.20427,23.24503 0,13.64833 11.26953,21.9977 25.53007,21.9977 10.49357,0 18.44838,-3.9668 25.31455,-10.7252 l -8.18179,-8.45968 c -4.86071,5.08259 -10.38793,7.56874 -18.02455,7.56874 -9.04854,0 -12.91819,-4.52258 -12.91819,-9.82579 0,-5.51958 3.53024,-8.21361 16.90918,-12.28647 15.25499,-4.73046 24.75919,-9.69426 24.75919,-23.79656 0,-14.21259 -8.84151,-23.90686 -28.63223,-23.90686" /><path
       id="path3911"
       style="fill:#000000;fill-opacity:1;fill-rule:nonzero;stroke:none"
       d="m 379.75685,760.17321 c 0,-8.4512 -4.42075,-13.65258 -13.25802,-13.65258 l -20.78433,0 0,27.18212 20.78433,0 c 8.06936,0 13.25802,-4.83652 13.25802,-13.52954 m 11.81979,0 c 0,16.35085 -10.60642,24.69598 -24.86568,24.69598 l -32.37927,0 0,-78.94144 11.38281,0 0,29.43917 20.22431,0 c 15.03141,0 25.63783,8.5615 25.63783,24.80629" /><path
       id="path3913"
       style="fill:#000000;fill-opacity:1;fill-rule:nonzero;stroke:none"
       d="m 433.09864,785.92134 c -19.71945,0 -31.97198,-15.5787 -31.97198,-40.65227 0,-25.15842 12.25253,-40.78379 31.97198,-40.78379 19.72369,0 31.97622,15.62537 31.97622,40.78379 0,25.07357 -12.25253,40.65227 -31.97622,40.65227 m 20.07158,-40.65227 c 0,-19.31216 -7.3057,-30.39375 -20.07158,-30.39375 -12.75316,0 -20.0631,11.08159 -20.0631,30.39375 0,19.58369 7.12751,30.37678 20.0631,30.37678 12.76588,0 20.07158,-11.0731 20.07158,-30.37678" /><path
       id="path3915"
       style="fill:#000000;fill-opacity:1;fill-rule:nonzero;stroke:none"
       d="m 526.76602,760.95808 c 0,-8.56574 -5.41351,-12.62588 -13.14771,-12.62588 l -22.55349,0 0,25.37055 22.55349,0 c 7.8445,0 13.14771,-4.5056 13.14771,-12.74467 m 11.72221,0.34365 c 0,16.24479 -11.39977,23.56746 -24.86992,23.56746 l -33.93205,0 0,-78.94144 11.37856,0 0,31.24226 17.47089,0 15.35385,-31.24226 13.37681,0 -15.80356,32.25623 c 10.49187,2.69403 17.02542,10.48763 17.02542,23.11775" /><path
       id="path3917"
       style="fill:#000000;fill-opacity:1;fill-rule:nonzero;stroke:none"
       d="m 583.12427,773.24455 0,-67.3168 -11.59917,0 0,67.3168 -22.54924,0 0,11.62464 56.70614,0 0,-11.62464 -22.55773,0" /><path
       id="path3919"
       style="fill:#000000;fill-opacity:1;fill-rule:nonzero;stroke:none"
       d="m 5.9125,705.96594 27.667812,0 0,78.94313 -27.667812,0 0,-78.94313 z" /><path
       id="path3921"
       style="fill:#000000;fill-opacity:1;fill-rule:nonzero;stroke:none"
       d="m 84.824236,705.96594 27.667814,0 0,78.94313 -27.667814,0 0,-78.94313 z" /><path
       id="path3923"
       style="fill:#000000;fill-opacity:1;fill-rule:nonzero;stroke:none"
       d="m 147.18827,705.96594 27.66951,0 0,78.94313 -27.66951,0 0,-78.94313 z" /><path
       id="path3925"
       style="fill:#000000;fill-opacity:1;fill-rule:nonzero;stroke:none"
       d="m 129.83362,786.545 c -8.62089,0 -15.58973,-7.05115 -15.58973,-15.73568 0,-8.68878 6.96884,-15.73144 15.58973,-15.73144 8.61454,0 15.62453,7.04266 15.62453,15.73144 0,8.68453 -7.00999,15.73568 -15.62453,15.73568" /><path
       id="path3927"
       style="fill:#000000;fill-opacity:1;fill-rule:nonzero;stroke:none"
       d="m 209.43987,741.76047 c -1.63424,2.81282 -1.72545,4.53954 -0.13279,7.24206 l 21.92558,35.90484 -30.42047,0 c 0,0 -18.27783,-29.87615 -20.77373,-34.0169 -2.48105,-4.14074 -2.38475,-6.74144 0.0993,-10.98825 2.49591,-4.25529 20.67446,-33.93628 20.67446,-33.93628 l 30.42047,0 c 0,0 -21.52933,35.37027 -21.79279,35.79453" /><path
       id="path3929"
       style="fill:#000000;fill-opacity:1;fill-rule:nonzero;stroke:none"
       d="m 68.283318,772.24331 c -1.417017,7.22085 -7.746078,12.66406 -15.331362,12.66406 l -17.755989,0 17.82387,-78.94143 30.10907,0 -14.845589,66.27737" /></g></svg>