<?xml version="1.0" encoding="UTF-8" standalone="no"?>
<!-- Created with Inkscape (http://www.inkscape.org/) -->

<svg
   xmlns:svg="http://www.w3.org/2000/svg"
   xmlns="http://www.w3.org/2000/svg"
   version="1.1"
   width="738.98706"
   height="114.59391"
   id="svg3243"
   xml:space="preserve"><defs
     id="defs3247" /><g
     transform="matrix(1.25,0,0,-1.25,-12.291193,978.4953)"
     id="g3253"><path
       d="m 415.66478,693.00642 -6.91125,19.59128 -32.14436,0 -6.91125,-19.59128 -18.83292,0 33.65214,87.8998 17.08066,0 33.39965,-87.8998 -19.33267,0 z m -18.58985,52.234 c -1.75837,5.14817 -3.51204,10.42329 -4.39123,13.68615 -0.87918,-3.26286 -2.63756,-8.53798 -4.39593,-13.68615 l -5.65124,-15.94289 20.08964,0 -5.65124,15.94289"
       id="path3277"
       style="fill:#0c0a08;fill-opacity:1;fill-rule:nonzero;stroke:none" /><path
       d="m 445.79216,693.00642 0,15.57147 37.8003,45.07827 c 2.7551,3.3898 7.78574,9.16328 10.04247,11.42472 -3.51674,-0.12695 -12.68473,-0.24919 -17.8282,-0.24919 l -27.50395,0 0,16.07453 66.17403,0 0,-15.57146 -37.41947,-45.07827 c -2.7598,-3.3945 -7.77633,-9.16798 -10.04717,-11.42472 3.52144,0.12224 12.68473,0.24918 17.8329,0.24918 l 30.26375,0 0,-16.07453 -69.31466,0"
       id="path3279"
       style="fill:#0c0a08;fill-opacity:1;fill-rule:nonzero;stroke:none" /><path
       d="m 531.70322,693.00642 0,15.57147 37.805,45.07827 c 2.7598,3.3898 7.77633,9.16328 10.03777,11.42472 -3.51205,-0.12695 -12.67533,-0.24919 -17.8282,-0.24919 l -27.50395,0 0,16.07453 66.17873,0 0,-15.57146 -37.41948,-45.07827 c -2.76449,-3.3945 -7.78103,-9.16798 -10.04716,-11.42472 3.52144,0.12224 12.68472,0.24918 17.8329,0.24918 l 30.26375,0 0,-16.07453 -69.31936,0"
       id="path3281"
       style="fill:#0c0a08;fill-opacity:1;fill-rule:nonzero;stroke:none" /><path
       d="m 324.20028,780.90622 0,-52.06474 c 0,-13.25361 -4.91451,-20.18837 -15.76658,-20.18837 -7.44911,0 -11.84786,3.23936 -15.10367,9.93904 L 278.2574,708.36632 c 5.86234,-10.53613 16.13565,-17.24521 30.1763,-17.24521 23.08686,0 33.42458,15.13422 33.42458,38.21874 l 0,51.56637 -17.658,0"
       id="path3283"
       style="fill:#0c0a08;fill-opacity:1;fill-rule:nonzero;stroke:none" /><path
       d="m 9.8329543,692.99232 30.8299047,0 0,87.9755 -30.8299047,0 0,-87.9755 z"
       id="path3285"
       style="fill:#0c0a08;fill-opacity:1;fill-rule:nonzero;stroke:none" /><path
       d="m 97.790114,692.99232 30.828076,0 0,87.9755 -30.828076,0 0,-87.9755 z"
       id="path3287"
       style="fill:#0c0a08;fill-opacity:1;fill-rule:nonzero;stroke:none" /><path
       d="m 167.29377,692.99232 30.82807,0 0,87.9755 -30.82807,0 0,-87.9755 z"
       id="path3289"
       style="fill:#0c0a08;fill-opacity:1;fill-rule:nonzero;stroke:none" /><path
       d="m 147.94603,782.79624 c -9.60663,0 -17.38296,-7.85155 -17.38296,-17.53671 0,-9.68515 7.77633,-17.532 17.38296,-17.532 9.60711,0 17.40695,7.84685 17.40695,17.532 0,9.68516 -7.79984,17.53671 -17.40695,17.53671"
       id="path3291"
       style="fill:#0c0a08;fill-opacity:1;fill-rule:nonzero;stroke:none" /><path
       d="m 236.67989,732.8942 c -1.82702,3.12182 -1.9281,5.04945 -0.16314,8.06313 l 24.45171,40.01001 -33.90085,0 c 0,0 -20.38724,-33.28213 -23.16209,-37.90843 -2.77155,-4.62631 -2.65965,-7.51305 0.11895,-12.25219 2.76779,-4.74384 23.04314,-37.8144 23.04314,-37.8144 l 33.90085,0 c 0,0 -23.99802,39.39882 -24.28857,39.90188"
       id="path3293"
       style="fill:#0c0a08;fill-opacity:1;fill-rule:nonzero;stroke:none" /><path
       d="m 79.342251,766.84865 c -1.575483,8.05842 -8.627777,14.11869 -17.083479,14.11869 l -19.801433,0 19.873367,-87.97502 33.557169,0 -16.545624,73.85633"
       id="path3295"
       style="fill:#0c0a08;fill-opacity:1;fill-rule:nonzero;stroke:none" /></g></svg>