<?xml version="1.0" encoding="UTF-8" standalone="no"?>
<!-- Created with Inkscape (http://www.inkscape.org/) -->

<svg
   xmlns:svg="http://www.w3.org/2000/svg"
   xmlns="http://www.w3.org/2000/svg"
   version="1.1"
   width="738.83466"
   height="73.570587"
   id="svg3359"
   xml:space="preserve"><defs
     id="defs3363" /><g
     transform="matrix(1.25,0,0,-1.25,-10.498979,979.55844)"
     id="g3369"><path
       d="m 8.3991831,725.6696 19.9089789,0 0,56.81205 -19.9089789,0 0,-56.81205 z"
       id="path3373"
       style="fill:#0c0a08;fill-opacity:1;fill-rule:nonzero;stroke:none" /><path
       d="m 65.190776,725.6696 19.905407,0 0,56.81205 -19.905407,0 0,-56.81205 z"
       id="path3375"
       style="fill:#0c0a08;fill-opacity:1;fill-rule:nonzero;stroke:none" /><path
       d="m 110.07063,725.6696 19.9054,0 0,56.81205 -19.9054,0 0,-56.81205 z"
       id="path3377"
       style="fill:#0c0a08;fill-opacity:1;fill-rule:nonzero;stroke:none" /><path
       d="m 97.577559,783.64675 c -6.195852,0 -11.22294,-5.06525 -11.22294,-11.32125 0,-6.24379 5.027088,-11.3182 11.22294,-11.3182 6.207761,0 11.240651,5.07441 11.240651,11.3182 0,6.256 -5.03289,11.32125 -11.240651,11.32125"
       id="path3379"
       style="fill:#0c0a08;fill-opacity:1;fill-rule:nonzero;stroke:none" /><path
       d="m 154.86896,751.41721 c -1.18891,2.03648 -1.24876,3.26386 -0.10381,5.21486 l 15.78716,25.84836 -21.89935,0 c 0,0 -13.1431,-21.50366 -14.94418,-24.48664 -1.78887,-2.99518 -1.71132,-4.84542 0.0718,-7.91083 1.79498,-3.06541 14.87243,-24.41336 14.87243,-24.41336 l 21.89935,0 c 0,0 -15.50077,25.43618 -15.68335,25.74761"
       id="path3381"
       style="fill:#0c0a08;fill-opacity:1;fill-rule:nonzero;stroke:none" /><path
       d="m 63.93866,725.70319 -10.65993,47.65429 c -1.016104,5.19959 -5.557734,9.12295 -11.016544,9.12295 l -12.791367,0 12.857011,-56.81083 21.622738,0 -0.01191,0.0336"
       id="path3383"
       style="fill:#0c0a08;fill-opacity:1;fill-rule:nonzero;stroke:none" /><path
       d="m 232.26047,725.69708 -15.35544,27.31695 -9.05242,-10.65566 0,-16.66129 -11.33011,0 0,56.591 11.33011,0 0,-16.08424 c 0,-2.10365 -0.0834,-7.19028 -0.16701,-8.97335 0.81703,1.27013 2.9103,3.87451 4.4369,5.73696 l 15.85617,19.32063 13.66275,0 -16.56665,-19.5771 20.77701,-37.0139 -13.59131,0"
       id="path3385"
       style="fill:#0c0a08;fill-opacity:1;fill-rule:nonzero;stroke:none" /><path
       d="m 254.74879,725.69708 0,56.591 11.31209,0 0,-45.44073 28.38556,0 0,-11.15027 -39.69765,0"
       id="path3387"
       style="fill:#0c0a08;fill-opacity:1;fill-rule:nonzero;stroke:none" /><path
       d="m 334.23265,749.04793 -12.93334,0 3.64246,10.28011 c 1.12052,3.31577 2.25937,6.71398 2.82115,8.80847 0.55874,-2.09449 1.69147,-5.4927 2.83337,-8.80847 l 3.63636,-10.28011 m 20.78311,-23.35085 -21.51588,56.591 -10.9854,0 -21.6777,-56.591 12.13035,0 4.44851,12.60665 20.69151,0 4.44851,-12.60665 12.4601,0"
       id="path3389"
       style="fill:#0c0a08;fill-opacity:1;fill-rule:nonzero;stroke:none" /><path
       d="m 382.74489,724.79028 c -9.45881,0 -17.69328,3.97221 -21.99523,10.28622 l 8.17035,7.28187 c 3.97221,-4.62254 9.05884,-6.46972 14.48437,-6.46972 6.71092,0 9.87709,1.84718 9.87709,6.12776 0,3.64552 -1.9571,5.24845 -12.62497,7.69406 -10.43583,2.4334 -17.71159,5.73696 -17.71159,16.89944 0,10.2618 9.05883,16.56054 20.203,16.56054 8.82068,0 15.29041,-3.30356 20.62739,-8.89091 l -8.17035,-7.90778 c -3.63636,3.70964 -7.67268,5.8194 -12.86006,5.8194 -6.05449,0 -8.07571,-2.58606 -8.07571,-5.11105 0,-3.55393 2.42119,-4.68055 11.40674,-6.79031 8.9703,-2.0945 18.9115,-5.16601 18.9115,-17.47345 0,-10.74114 -6.79946,-18.02607 -22.24253,-18.02607"
       id="path3391"
       style="fill:#0c0a08;fill-opacity:1;fill-rule:nonzero;stroke:none" /><path
       d="m 435.00035,724.79028 c -9.45881,0 -17.70549,3.97221 -21.99218,10.28622 l 8.15204,7.28187 c 3.97526,-4.62254 9.0741,-6.46972 14.47825,-6.46972 6.7262,0 9.88015,1.84718 9.88015,6.12776 0,3.64552 -1.94489,5.24845 -12.61276,7.69406 -10.43582,2.4334 -17.72075,5.73696 -17.72075,16.89944 0,10.2618 9.06189,16.56054 20.20911,16.56054 8.82374,0 15.29346,-3.30356 20.6335,-8.89091 l -8.17646,-7.90778 c -3.6333,3.70964 -7.67574,5.8194 -12.8509,5.8194 -6.06671,0 -8.08182,-2.58606 -8.08182,-5.11105 0,-3.55393 2.4273,-4.68055 11.40369,-6.79031 8.96724,-2.0945 18.91456,-5.16601 18.91456,-17.47345 0,-10.74114 -6.79337,-18.02607 -22.23643,-18.02607"
       id="path3393"
       style="fill:#0c0a08;fill-opacity:1;fill-rule:nonzero;stroke:none" /><path
       d="m 470.01135,725.69708 11.31234,0 0,56.59161 -11.31234,0 0,-56.59161 z"
       id="path3395"
       style="fill:#0c0a08;fill-opacity:1;fill-rule:nonzero;stroke:none" /><path
       d="m 515.94059,724.79028 c -9.47102,0 -17.7116,3.97221 -21.99523,10.28622 l 8.17035,7.28187 c 3.96,-4.62254 9.05884,-6.46972 14.4691,-6.46972 6.72009,0 9.86183,1.84718 9.86183,6.12776 0,3.64552 -1.92657,5.24845 -12.60665,7.69406 -10.43583,2.4334 -17.7177,5.73696 -17.7177,16.89944 0,10.2618 9.06494,16.56054 20.22132,16.56054 8.81458,0 15.27819,-3.30356 20.62129,-8.89091 l -8.16425,-7.90778 c -3.64246,3.70964 -7.68489,5.8194 -12.86006,5.8194 -6.0667,0 -8.08181,-2.58606 -8.08181,-5.11105 0,-3.55393 2.42729,-4.68055 11.38537,-6.79031 8.98555,-2.0945 18.93897,-5.16601 18.93897,-17.47345 0,-10.74114 -6.79946,-18.02607 -22.24253,-18.02607"
       id="path3397"
       style="fill:#0c0a08;fill-opacity:1;fill-rule:nonzero;stroke:none" /><path
       d="m 585.87711,725.69708 -15.35453,27.31695 -9.04662,-10.65566 0,-16.66129 -11.34262,0 0,56.591 11.34262,0 0,-16.08424 c 0,-2.10365 -0.10381,-7.19028 -0.17403,-8.97335 0.81826,1.27013 2.90359,3.87451 4.4424,5.73696 l 15.84914,19.32063 13.66916,0 -16.57885,-19.5771 20.78311,-37.0139 -13.58978,0"
       id="path3399"
       style="fill:#0c0a08;fill-opacity:1;fill-rule:nonzero;stroke:none" /></g></svg>