<?xml version="1.0" encoding="UTF-8" standalone="no"?>
<!-- Created with Inkscape (http://www.inkscape.org/) -->

<svg
   xmlns:dc="http://purl.org/dc/elements/1.1/"
   xmlns:cc="http://creativecommons.org/ns#"
   xmlns:rdf="http://www.w3.org/1999/02/22-rdf-syntax-ns#"
   xmlns:svg="http://www.w3.org/2000/svg"
   xmlns="http://www.w3.org/2000/svg"
   xmlns:sodipodi="http://sodipodi.sourceforge.net/DTD/sodipodi-0.dtd"
   xmlns:inkscape="http://www.inkscape.org/namespaces/inkscape"
   version="1.1"
   width="734.71637"
   height="154.76015"
   id="svg2837"
   xml:space="preserve"
   inkscape:version="0.47 r22583"
   sodipodi:docname="nrk_p1.svg"><metadata
     id="metadata15"><rdf:RDF><cc:Work
         rdf:about=""><dc:format>image/svg+xml</dc:format><dc:type
           rdf:resource="http://purl.org/dc/dcmitype/StillImage" /></cc:Work></rdf:RDF></metadata><sodipodi:namedview
     pagecolor="#ffffff"
     bordercolor="#666666"
     borderopacity="1"
     objecttolerance="10"
     gridtolerance="10"
     guidetolerance="10"
     inkscape:pageopacity="0"
     inkscape:pageshadow="2"
     inkscape:window-width="1112"
     inkscape:window-height="687"
     id="namedview13"
     showgrid="false"
     inkscape:zoom="0.73633857"
     inkscape:cx="367.35818"
     inkscape:cy="77.380074"
     inkscape:window-x="0"
     inkscape:window-y="25"
     inkscape:window-maximized="0"
     inkscape:current-layer="svg2837" /><defs
     id="defs2841"><inkscape:perspective
       sodipodi:type="inkscape:persp3d"
       inkscape:vp_x="0 : 77.380074 : 1"
       inkscape:vp_y="0 : 1000 : 0"
       inkscape:vp_z="734.71637 : 77.380074 : 1"
       inkscape:persp3d-origin="367.35818 : 51.586716 : 1"
       id="perspective17" /></defs><g
     transform="matrix(1.25,0,0,-1.25,-17.232375,973.48)"
     id="g2847"
     style="fill:#000000"><path
       d="m 577.91722,675.26075 0,100.67476 -15.4418,0 -30.83796,-16.6933 0,-17.11047 22.26643,5.91859 0,-72.78958 -25.4669,0 0,-20.24576 73.12201,0 0,20.24576 -23.64178,0"
       id="path2851"
       style="fill:#000000;fill-opacity:1;fill-rule:nonzero;stroke:none" /><path
       d="m 487.40509,737.30821 c 0,-10.59219 -6.06004,-15.77422 -17.32688,-15.77422 l -28.2502,0 0,31.17691 27.9269,0 c 10.74472,0 17.65018,-4.83656 17.65018,-15.40269 m 24.93827,0.49539 c 0,25.84496 -18.89126,38.49042 -41.74825,38.49042 l -53.01183,0 0,-121.31814 24.24473,0 0,43.00758 26.69169,0 c 25.111,0 43.82366,11.78504 43.82366,39.82014"
       id="path2853"
       style="fill:#000000;fill-opacity:1;fill-rule:nonzero;stroke:none" /><path
       d="m 13.7859,655.01499 42.506261,0 0,121.27577 -42.506261,0 0,-121.27577 z"
       id="path2855"
       style="fill:#000000;fill-opacity:1;fill-rule:nonzero;stroke:none" /><path
       d="m 135.02582,655.01499 42.50118,0 0,121.27577 -42.50118,0 0,-121.27577 z"
       id="path2857"
       style="fill:#000000;fill-opacity:1;fill-rule:nonzero;stroke:none" /><path
       d="m 230.84186,655.01499 42.49864,0 0,121.27577 -42.49864,0 0,-121.27577 z"
       id="path2859"
       style="fill:#000000;fill-opacity:1;fill-rule:nonzero;stroke:none" /><path
       d="m 204.17104,778.784 c -13.22754,0 -23.95727,-10.79426 -23.95727,-24.16325 0,-13.31683 10.72973,-24.16324 23.95727,-24.16324 13.25295,0 23.99768,10.84641 23.99768,24.16324 0,13.36899 -10.74473,24.16325 -23.99768,24.16325"
       id="path2861"
       style="fill:#000000;fill-opacity:1;fill-rule:nonzero;stroke:none" /><path
       d="m 326.48517,709.99012 c -2.53887,4.34117 -2.66597,6.96152 -0.22162,11.13973 l 33.70405,55.16417 -46.75299,0 c 0,0 -28.05922,-45.89518 -31.90435,-52.26353 -3.81905,-6.38791 -3.65349,-10.35102 0.15318,-16.89537 3.8321,-6.55739 31.75117,-52.12013 31.75117,-52.12013 l 46.75299,0 c 0,0 -33.09264,54.29723 -33.48243,54.97513"
       id="path2863"
       style="fill:#000000;fill-opacity:1;fill-rule:nonzero;stroke:none" /><path
       d="m 132.3605,655.10624 -22.76051,101.71769 c -2.16733,11.10062 -11.865873,19.47009 -23.519246,19.47009 l -27.305707,0 27.442591,-121.27903 46.168292,0 -0.0254,0.0912"
       id="path2865"
       style="fill:#000000;fill-opacity:1;fill-rule:nonzero;stroke:none" /></g></svg>